<?xml version="1.0" standalone="no"?>
<!DOCTYPE svg PUBLIC "-//W3C//DTD SVG 20010904//EN"
 "http://www.w3.org/TR/2001/REC-SVG-20010904/DTD/svg10.dtd">
<svg version="1.0" xmlns="http://www.w3.org/2000/svg"
 width="147.000000pt" height="147.000000pt" viewBox="0 0 147.000000 147.000000"
 preserveAspectRatio="xMidYMid meet">
<metadata>
Created by potrace 1.10, written by Peter Selinger 2001-2011
</metadata>
<g transform="translate(0.000000,147.000000) scale(0.100000,-0.100000)"
fill="#000000" stroke="none">
<path d="M1132 1393 c-20 -21 -52 -68 -71 -103 -45 -87 -76 -127 -111 -145
-55 -28 -80 4 -80 103 0 71 -19 102 -61 102 -24 0 -29 -4 -25 -17 22 -78 13
-182 -31 -336 -4 -16 2 -14 37 9 58 39 145 45 194 15 67 -42 101 -140 78 -224
-8 -27 -7 -37 1 -37 38 0 329 203 335 233 5 25 -40 22 -98 -8 -102 -52 -94
-14 14 69 90 69 120 104 110 129 -13 34 -54 19 -141 -53 -47 -39 -90 -69 -96
-67 -27 9 -12 32 76 127 97 103 132 156 121 184 -9 23 -42 20 -78 -8 -18 -13
-67 -67 -111 -120 -73 -89 -105 -114 -105 -83 0 6 30 57 66 111 70 108 80 148
36 154 -17 3 -34 -8 -60 -35z m23 -61 c-11 -20 -25 -42 -30 -48 -6 -6 -21 -31
-34 -56 -26 -48 -24 -91 5 -102 21 -8 76 28 98 64 27 43 134 155 141 148 11
-10 -34 -67 -111 -141 -44 -42 -66 -72 -70 -94 -7 -39 12 -63 55 -66 24 -2 27
-4 18 -17 -7 -8 -15 -17 -18 -20 -12 -9 11 -52 31 -57 36 -9 18 -35 -55 -79
-80 -48 -85 -49 -85 -9 0 52 -28 126 -62 161 -36 39 -98 58 -165 51 -78 -8
-78 -6 -46 103 3 10 10 5 24 -17 24 -37 48 -47 92 -39 48 9 95 58 137 141 30
60 80 128 88 120 3 -3 -3 -22 -13 -43z m185 -212 c-36 -28 -46 -24 -13 4 15
13 30 22 33 19 3 -2 -6 -13 -20 -23z"/>
<path d="M272 1408 c-21 -21 -13 -39 46 -111 80 -100 84 -106 78 -123 -9 -23
-38 -3 -136 91 -92 89 -140 120 -170 110 -49 -16 -2 -79 168 -223 54 -46 70
-72 44 -72 -4 0 -52 29 -106 65 -64 42 -109 65 -127 65 -16 0 -29 -2 -29 -4 0
-2 -3 -11 -6 -19 -9 -25 54 -85 144 -135 99 -55 138 -88 148 -126 10 -41 -15
-61 -74 -59 -90 4 -142 -23 -142 -72 0 -14 11 -15 88 -10 69 5 102 2 158 -13
l72 -19 -15 36 c-32 76 11 202 81 235 55 26 124 21 179 -14 26 -16 47 -26 47
-22 0 54 -130 281 -214 375 -53 57 -67 17 -26 -71 35 -74 34 -72 17 -72 -17 0
-65 51 -106 112 -32 48 -75 88 -95 88 -7 0 -17 -5 -24 -12z m47 -38 c10 -5 33
-32 51 -60 18 -28 51 -66 73 -85 l41 -35 23 22 c18 17 22 29 18 50 -4 15 -5
28 -2 28 11 0 147 -217 147 -234 0 -3 -12 -1 -26 4 -42 16 -115 11 -158 -10
-68 -34 -116 -121 -116 -214 0 -32 -3 -37 -17 -31 -10 4 -55 9 -101 12 -94 7
-100 15 -13 19 97 4 140 48 107 111 -21 42 -83 95 -150 129 -64 32 -135 88
-124 99 8 8 45 -11 132 -70 71 -47 101 -53 120 -23 16 26 -15 77 -72 115 -55
38 -148 130 -140 139 12 11 57 -22 135 -97 43 -42 88 -81 101 -88 46 -25 93
16 69 61 -14 27 -65 97 -87 118 -43 43 -48 60 -11 40z"/>
<path d="M407 696 c-80 -29 -337 -209 -337 -236 0 -19 61 -10 111 15 50 26 73
26 63 1 -3 -8 -43 -42 -90 -76 -46 -34 -89 -71 -94 -81 -14 -26 -12 -59 4 -65
20 -8 48 9 131 77 72 59 105 73 105 43 0 -8 -43 -60 -96 -115 -101 -106 -129
-151 -113 -181 5 -10 16 -18 24 -18 21 0 87 62 172 162 41 49 79 88 84 88 19
0 7 -30 -51 -121 -71 -110 -80 -137 -55 -155 38 -28 81 15 159 158 60 108 138
160 166 109 5 -11 10 -49 10 -86 0 -57 3 -69 25 -91 14 -14 33 -24 43 -22 15
3 17 15 14 98 -3 73 1 115 18 183 27 104 33 91 -105 202 -49 40 -101 84 -114
99 -28 30 -24 29 -74 12z m74 -52 c13 -14 57 -51 96 -81 40 -30 81 -66 92 -79
18 -23 18 -28 4 -87 -8 -34 -21 -98 -28 -142 l-13 -80 -1 56 c-1 60 -24 102
-61 114 -50 16 -127 -52 -187 -166 -39 -73 -65 -108 -80 -109 -22 0 -14 25 27
84 74 106 86 146 50 166 -26 14 -56 -6 -107 -68 -61 -76 -131 -147 -139 -140
-11 12 32 71 105 142 39 38 74 79 77 92 21 82 -55 87 -141 9 -52 -47 -75 -60
-75 -43 0 7 19 25 43 40 55 35 89 66 111 100 23 35 5 66 -41 70 l-32 3 67 45
c94 63 164 100 188 100 11 0 31 -12 45 -26z"/>
<path d="M984 679 c-16 -17 -70 -64 -121 -105 -51 -41 -96 -82 -101 -91 -15
-29 10 -103 63 -189 70 -112 165 -236 179 -231 20 7 18 36 -8 93 -46 101 -28
112 41 23 84 -107 120 -141 145 -137 46 6 34 46 -42 136 -38 46 -70 90 -70 98
0 32 41 9 120 -67 47 -45 102 -93 122 -106 40 -27 81 -27 86 -1 5 28 -33 73
-136 160 -54 44 -98 87 -100 94 -6 26 25 14 105 -39 104 -69 138 -84 158 -67
38 32 -7 83 -141 160 -92 53 -144 102 -144 134 1 31 21 41 99 47 87 6 121 24
121 64 0 22 -2 22 -92 17 -75 -4 -108 0 -169 17 -41 11 -78 21 -80 21 -3 0
-18 -14 -35 -31z m131 -25 c28 -8 78 -14 113 -14 40 0 61 -4 57 -10 -3 -5 -30
-10 -59 -10 -87 0 -129 -46 -102 -111 19 -46 59 -80 148 -125 77 -40 137 -88
125 -100 -4 -4 -13 -2 -19 4 -7 7 -19 12 -28 12 -9 0 -25 9 -35 20 -10 11 -25
20 -33 20 -9 0 -12 3 -9 7 8 7 -34 31 -75 43 -20 6 -33 4 -49 -8 -18 -15 -19
-21 -9 -42 6 -14 34 -43 62 -65 86 -67 164 -147 150 -152 -18 -7 -94 53 -138
109 -21 27 -107 88 -123 88 -6 0 -19 -10 -30 -21 -15 -16 -18 -30 -14 -52 l6
-31 -28 22 c-15 12 -34 22 -41 22 -23 0 -46 -32 -40 -56 11 -43 -9 -25 -61 54
-123 189 -123 196 5 300 53 44 106 89 116 101 14 15 26 19 40 15 12 -4 44 -13
71 -20z m-5 -502 c0 -7 4 -11 9 -7 10 6 56 -53 48 -61 -2 -3 -14 7 -26 22 -11
15 -21 23 -21 18 0 -5 -14 12 -30 38 -17 27 -30 51 -30 55 1 13 50 -51 50 -65z"/>
</g>
</svg>
