<?xml version="1.0" standalone="no"?>
<!DOCTYPE svg PUBLIC "-//W3C//DTD SVG 20010904//EN"
 "http://www.w3.org/TR/2001/REC-SVG-20010904/DTD/svg10.dtd">
<svg version="1.0" xmlns="http://www.w3.org/2000/svg"
 width="300.000000pt" height="300.000000pt" viewBox="0 0 300.000000 300.000000"
 preserveAspectRatio="xMidYMid meet">
<metadata>
Created by potrace 1.10, written by Peter Selinger 2001-2011
</metadata>
<g transform="translate(0.000000,300.000000) scale(0.100000,-0.100000)"
fill="#000000" stroke="none">
<path d="M1207 2243 c-15 -14 -6 -37 32 -82 21 -25 41 -53 44 -61 4 -12 6 -11
6 3 1 14 6 17 22 12 14 -5 25 -1 34 11 13 18 14 18 34 0 12 -11 21 -23 21 -28
0 -5 9 -18 20 -30 28 -30 25 -34 -19 -30 -48 5 -98 -20 -113 -56 -7 -15 -13
-28 -14 -30 0 -1 -21 18 -46 43 -47 47 -50 52 -17 35 14 -8 23 -7 33 2 11 11
11 17 -2 38 -11 18 -12 21 -2 13 8 -7 22 -13 33 -13 15 0 16 2 5 13 -122 114
-151 137 -173 137 -51 0 -17 -51 88 -134 26 -21 46 -41 43 -43 -3 -3 -34 13
-69 36 -64 41 -107 52 -107 27 0 -25 34 -57 95 -89 55 -30 98 -77 83 -92 -3
-4 -26 -8 -50 -10 -57 -4 -78 -13 -78 -35 0 -15 12 -19 78 -23 42 -2 88 -8
102 -12 21 -6 23 -5 13 6 -23 24 -16 94 13 128 21 26 33 31 68 31 23 0 51 -7
62 -15 28 -21 35 -18 28 13 -7 29 -79 148 -118 196 -39 47 -54 22 -23 -41 18
-38 1 -36 -30 3 -57 76 -80 94 -96 77z m-6 -119 c13 -16 12 -16 -6 -6 -23 12
-65 50 -65 58 0 8 54 -32 71 -52z m-35 -81 c-7 -7 -46 16 -46 28 0 5 11 2 25
-7 14 -9 24 -19 21 -21z m104 -149 c0 -8 -10 -14 -25 -14 -24 0 -24 1 -7 18
19 21 32 19 32 -4z"/>
<path d="M1715 2218 c-15 -18 -36 -51 -48 -74 -20 -42 -62 -75 -84 -67 -8 3
-13 23 -13 52 0 48 -13 71 -39 71 -13 0 -16 -13 -16 -67 0 -38 -6 -87 -12
-111 l-11 -43 24 16 c14 9 43 17 66 18 33 2 46 -3 69 -26 16 -16 29 -36 30
-45 1 -9 2 -26 3 -37 0 -11 -2 -28 -7 -37 -12 -28 12 -22 78 20 77 47 135 92
135 103 0 14 -26 11 -65 -8 -41 -20 -59 -10 -26 15 56 42 101 85 101 98 0 26
-41 14 -89 -26 -26 -22 -50 -40 -54 -40 -20 0 -2 31 44 75 73 72 96 125 55
125 -14 0 -92 -79 -120 -123 -20 -29 -42 -37 -32 -11 3 8 22 40 42 70 35 53
39 84 10 84 -8 0 -26 -14 -41 -32z m24 -20 c-7 -13 -23 -40 -37 -60 -13 -21
-22 -44 -18 -53 7 -18 37 -20 54 -3 9 9 12 9 12 0 0 -7 -4 -12 -10 -12 -16 0
-12 -36 6 -51 13 -11 19 -10 37 0 21 13 21 12 -1 -12 l-24 -25 20 -20 20 -20
-39 -26 c-21 -14 -40 -26 -43 -26 -2 0 -7 16 -10 35 -4 20 -21 51 -38 70 -27
32 -35 35 -84 35 -56 0 -60 3 -48 48 7 23 7 23 21 2 8 -11 12 -24 8 -29 -3 -6
7 -6 27 -1 38 11 89 65 119 126 11 24 25 44 30 44 5 0 4 -10 -2 -22z m86 -40
c-31 -37 -72 -67 -45 -33 37 47 54 65 63 65 5 0 -3 -15 -18 -32z m45 -76 c0
-4 -10 -13 -22 -21 -23 -14 -23 -14 -4 8 20 22 26 25 26 13z"/>
<path d="M1289 1810 c-34 -10 -157 -90 -188 -124 l-24 -26 24 0 c13 1 35 7 49
15 59 34 53 8 -7 -35 -53 -38 -72 -58 -73 -78 0 -31 33 -22 84 22 30 25 57 46
60 46 18 0 0 -29 -53 -85 -63 -68 -80 -102 -53 -112 11 -5 37 16 89 72 40 43
73 74 73 69 0 -5 -18 -38 -40 -74 -44 -72 -48 -85 -24 -94 19 -7 54 30 94 100
36 63 52 77 82 72 20 -3 22 -8 20 -46 -3 -31 1 -49 14 -63 31 -34 44 -24 37
31 -3 28 0 70 7 97 7 27 14 55 16 64 3 11 -23 40 -78 86 -71 60 -87 69 -109
63z m49 -37 c10 -10 39 -34 65 -53 51 -38 55 -55 35 -121 -11 -37 -12 -38 -25
-19 -32 45 -88 13 -144 -83 -19 -31 -35 -53 -37 -48 -2 5 11 31 27 59 35 56
37 65 15 82 -13 12 -24 4 -80 -56 -35 -38 -64 -66 -64 -61 0 4 25 34 55 67 30
33 55 66 55 73 0 19 -20 36 -36 30 -17 -6 -18 9 -2 25 15 15 -9 45 -31 37 -24
-9 -3 10 55 50 55 38 86 43 112 18z m-198 -166 c0 -2 -10 -12 -22 -23 l-23
-19 19 23 c18 21 26 27 26 19z m287 -109 c-3 -7 -5 -2 -5 12 0 14 2 19 5 13 2
-7 2 -19 0 -25z"/>
<path d="M1618 1787 c-20 -17 -57 -49 -82 -70 -40 -33 -45 -42 -40 -65 8 -31
81 -151 123 -202 25 -29 31 -32 36 -18 4 9 -1 33 -11 53 -23 49 -12 54 23 10
44 -59 74 -86 86 -82 25 8 17 39 -22 85 -23 27 -41 53 -41 58 0 6 -7 11 -15
11 -8 0 -11 -5 -8 -10 4 -6 -4 -8 -20 -5 -14 3 -25 2 -24 -1 1 -3 -2 -7 -7 -8
-5 -1 -12 -6 -16 -12 -4 -7 -12 0 -20 16 -8 16 -23 40 -33 56 -10 15 -16 27
-12 27 3 0 1 8 -4 18 -8 14 -4 25 15 45 14 15 28 27 32 27 4 0 24 16 44 35 31
30 41 35 65 28 26 -7 32 -8 51 -12 4 -1 -4 -11 -17 -21 -21 -18 -22 -23 -11
-50 7 -17 20 -34 28 -39 14 -8 14 -12 -2 -35 -9 -15 -14 -31 -11 -36 3 -6 2
-10 -4 -10 -5 0 -13 5 -16 10 -4 6 -11 8 -16 4 -11 -6 109 -123 148 -145 23
-12 53 -7 53 10 0 13 -73 84 -116 113 -19 13 -34 26 -34 31 0 14 23 7 54 -17
45 -33 95 -58 106 -51 29 18 -5 59 -83 104 -59 34 -94 72 -82 91 3 5 24 10 46
10 49 0 79 15 79 39 0 16 -11 19 -87 23 -49 3 -95 8 -103 11 -9 4 -29 -6 -52
-26z m239 -203 c-3 -3 -12 -4 -19 -1 -8 3 -5 6 6 6 11 1 17 -2 13 -5z m-22
-102 c-6 -7 -35 18 -35 31 0 5 9 2 20 -8 11 -10 18 -20 15 -23z"/>
</g>
</svg>
